<svg id="a" xmlns="http://www.w3.org/2000/svg" xmlns:xlink="http://www.w3.org/1999/xlink" viewBox="0 0 32 32"><defs><linearGradient id="b" x1="11.25" y1="28.52" x2="11.25" y2="3.48" gradientUnits="userSpaceOnUse"><stop offset="0" stop-color="#9ce7e0"/><stop offset="1" stop-color="#7e57c5"/></linearGradient></defs><circle cx="16" cy="16" r="16" fill="#211335"/><path d="m19.59,27.81c-4.86-1.72-8.35-6.36-8.35-11.81s3.49-10.09,8.35-11.81c-1.3-.46-2.71-.71-4.17-.71-6.92,0-12.52,5.61-12.52,12.52s5.61,12.52,12.52,12.52c1.46,0,2.87-.25,4.17-.71Z" fill="url(#b)"/><path d="m27.84,20.48h0c-.03-.19-.06-.38-.11-.57-.05-.22-.13-.42-.23-.58l-.05-.08c.3-1.03.46-2.11.46-3.24s-.17-2.22-.47-3.26l.04-.08c.13-.24.23-.51.3-.82.04-.19.06-.36.07-.53l1.64-.96c.1-.06.13-.18.06-.28l-.4-.59c-.06-.09-.19-.12-.28-.05l-1.47,1.12c-.08-.03-.17-.06-.26-.09h0c-.18-.05-.37-.1-.56-.14-.06-.01-.12-.02-.18-.03-1.92-3.37-5.49-5.69-9.61-5.84l.1-1.22c0-.11-.08-.21-.2-.21h-.7c-.11,0-.2.1-.2.21l.1,1.22c-6.02.23-10.87,5.08-11.1,11.1l-1.17-.14c-.12-.01-.22.08-.22.19v.77c0,.12.1.21.22.19l1.17-.14c.23,6.02,5.08,10.87,11.1,11.1l-.1,1.22c0,.11.08.21.2.21h.7c.11,0,.2-.1.2-.21l-.1-1.22c4.12-.15,7.69-2.47,9.61-5.85.14-.01.28-.03.43-.06.21-.05.41-.11.58-.18l1.46,1.1c.09.07.22.05.28-.05l.39-.58c.06-.09.03-.22-.06-.28l-1.63-.96c0-.06-.01-.13-.02-.2Zm-11.93,2.75c-1.77-1.93-2.82-4.49-2.82-7.23s1.05-5.3,2.82-7.23v14.46Zm0-15.7c-2.31,2.14-3.71,5.19-3.71,8.48s1.4,6.33,3.71,8.48v2.19c-5.53-.23-9.99-4.69-10.22-10.22l1.21.14c.12.01.22-.08.22-.19v-.78c0-.12-.1-.21-.22-.19l-1.21.14c.23-5.53,4.68-9.99,10.22-10.22v2.19Zm9.94,11.81l-4.88-3.26c-.06-.04-.06-.12,0-.16l4.85-3.24c.06.02.13.04.2.06.17.05.35.08.53.11.31,1,.48,2.06.48,3.17s-.17,2.16-.48,3.15c-.06,0-.12.02-.19.03-.18.04-.35.09-.51.14Zm1.22-8.07c0,.13-.02.27-.05.42-.03.15-.07.28-.12.4-.05,0-.11,0-.17-.02-.16-.02-.33-.05-.5-.1-.06-.02-.11-.03-.17-.05.01-.16.04-.32.07-.48.03-.14.07-.27.11-.37.06,0,.12.01.18.02.17.03.34.07.5.12.05.02.1.03.15.05Zm-10.28-5.92c.66.03,1.31.11,1.94.26-.69.33-1.34.73-1.94,1.19v-1.44Zm0,21.33v-1.44c.6.45,1.25.85,1.94,1.19-.63.14-1.28.23-1.94.26Zm3.26-.65c-1.22-.45-2.32-1.11-3.26-1.93V7.92c.95-.82,2.05-1.48,3.26-1.93,2.33.87,4.28,2.52,5.52,4.65-.09.18-.17.4-.22.64-.05.23-.08.47-.09.7l-5.76,3.85c-.12.08-.12.25,0,.33l5.77,3.86c0,.12.01.24.04.38.03.21.08.41.14.6.04.14.09.26.14.37-1.24,2.13-3.19,3.79-5.53,4.66Zm6.61-5.15c-.15.03-.29.05-.42.06-.02-.05-.04-.11-.06-.16-.05-.16-.09-.32-.11-.49,0-.06-.02-.12-.02-.17.15-.05.31-.1.47-.13.14-.03.27-.05.39-.05.02.05.04.11.05.18.04.17.07.34.09.5,0,.05.01.1.02.15-.12.05-.26.09-.41.12Z" fill="#fff"/></svg>