<?xml version="1.0" encoding="utf-8"?>
<svg xmlns="http://www.w3.org/2000/svg" xmlns:xlink="http://www.w3.org/1999/xlink"
	 viewBox="0 0 1240 1240" preserveAspectRatio="xMidYMid meet">
<style type="text/css">
	.st0{fill:url(#stand-top_00000055686327953781473870000010883305250272431034_);}
	.st1{fill:url(#stand-edge_00000169526702080790976160000018282116651632263840_);}
	.st2{fill:url(#color_00000005260586760315488230000007079342015366036636_);}
	.st3{fill:url(#shade_00000075145509937654004850000011546035214644081302_);}
	.st4{fill:#211335;}
	#ball {
                filter:
                    drop-shadow(0 0 2.5em rgb(156, 231, 224))
                    drop-shadow(0 0 2.5em rgb(126, 87, 197))
                    drop-shadow(0 0 2.5em rgb(126, 87, 197));
            }
</style>
<g id="stand">
	<g id="top">
		
			<linearGradient id="stand-top_00000182489466517992492720000007794189284561162156_" gradientUnits="userSpaceOnUse" x1="348.73" y1="334.4" x2="891.27" y2="334.4" gradientTransform="matrix(1 0 0 -1 0 1398)">
			<stop  offset="0" style="stop-color:#9CE7E0"/>
			<stop  offset="1" style="stop-color:#211335"/>
		</linearGradient>
		
			<ellipse id="stand-top" style="fill:url(#stand-top_00000182489466517992492720000007794189284561162156_);" cx="620" cy="1063.6" rx="271.3" ry="62.5"/>
	</g>
	<g id="edge">
		
			<linearGradient id="stand-edge_00000104689417857438419550000014869483876826429095_" gradientUnits="userSpaceOnUse" x1="310.6" y1="247.72" x2="929.4" y2="247.72" gradientTransform="matrix(1 0 0 -1 0 1398)">
			<stop  offset="0" style="stop-color:#9CE7E0"/>
			<stop  offset="1" style="stop-color:#211335"/>
		</linearGradient>
		<path id="stand-edge" style="fill:url(#stand-edge_00000104689417857438419550000014869483876826429095_);" d="M891.3,1060.6
			c0,34.5-121.5,64-271.3,64s-271.3-29.4-271.3-64l-38.1,108.1c0,39.4,138.5,71.3,309.4,71.3s309.4-31.9,309.4-71.3L891.3,1060.6z"
			/>
	</g>
</g>
<g id="ball">
	
		<linearGradient id="color_00000036935489068308917570000014001646261693772682_" gradientUnits="userSpaceOnUse" x1="620" y1="294.68" x2="620" y2="1238" gradientTransform="matrix(1 0 0 -1 0 1398)">
		<stop  offset="0" style="stop-color:#7E57C5"/>
		<stop  offset="1" style="stop-color:#9CE7E0"/>
	</linearGradient>
	<circle id="color" style="fill:url(#color_00000036935489068308917570000014001646261693772682_);" cx="620" cy="631.7" r="470"/>
	
		<radialGradient id="shade_00000133509109914943273820000018238021431908968339_" cx="620" cy="766.34" r="471.66" fx="488.83" fy="539.53" gradientTransform="matrix(1 0 0 -1 0 1398)" gradientUnits="userSpaceOnUse">
		<stop  offset="0.76" style="stop-color:#7E57C5;stop-opacity:0"/>
		<stop  offset="1" style="stop-color:#7E57C5"/>
	</radialGradient>
	
		<circle id="shade" style="fill:url(#shade_00000133509109914943273820000018238021431908968339_);" cx="620" cy="631.7" r="471.7"/>
	<g id="content">
		<path class="st4" d="M510.1,797.9c0-3.1,0.7-5.9,2-8.7l131.6-320.8c2.7-6.8,7.7-10.2,14.8-10.2h63.2c5.4,0,8.2,2.5,8.2,7.6
			c0,2.4-0.5,5.1-1.5,8.2L596.8,794.8c-2.7,6.8-7.8,10.2-15.3,10.2h-62.7C513,805,510.1,802.7,510.1,797.9L510.1,797.9z"/>
		<path class="st4" d="M259.9,660.2c-3.4-1.3-5.7-3.1-6.9-5.1c-1.2-2-1.8-4.9-1.8-8.7v-30.6c0-3.7,0.6-6.6,1.8-8.7
			c1.2-2,3.5-3.7,6.9-5.1l224.9-101c2-0.7,3.6-1,4.6-1c4.4,0,6.6,2.4,6.6,7.1v56.1c0,4.1-0.6,6.9-1.8,8.4c-1.2,1.5-3.5,3-6.9,4.3
			l-134.1,54.6l134.1,54.6c3.4,1.4,5.7,2.8,6.9,4.3s1.8,4.3,1.8,8.4V755c0,4.8-2.2,7.1-6.6,7.1c-2,0-3.6-0.3-4.6-1L259.9,660.2
			L259.9,660.2z"/>
		<path class="st4" d="M750.1,762.2c-4.1,0-6.1-2.4-6.1-7.1v-52.5c0-3.7,0.6-6.5,1.8-8.2c1.2-1.7,3.5-3.2,6.9-4.6l137.2-59.1
			l-137.2-59.2c-3.4-1.3-5.7-2.9-6.9-4.6c-1.2-1.7-1.8-4.4-1.8-8.2v-51.5c0-4.8,2-7.1,6.1-7.1c1,0,2.5,0.3,4.6,1l225.4,101
			c3.1,1.4,5.3,3.1,6.6,5.1c1.3,2,2,4.9,2,8.7v30.6c0,3.7-0.7,6.6-2,8.7c-1.4,2-3.6,3.8-6.6,5.1l-225.4,101
			C752.7,761.9,751.2,762.2,750.1,762.2L750.1,762.2z"/>
	</g>
</g>
</svg>
