<svg xmlns="http://www.w3.org/2000/svg" viewBox="0 0 32 32"><circle cx="16" cy="16" r="16" style="fill:#211335"/><path d="M19.6 27.8c-4.9-1.7-8.4-6.4-8.4-11.8s3.5-10.1 8.4-11.8c-1.3-.5-2.7-.7-4.2-.7C8.5 3.5 2.9 9.1 2.9 16s5.6 12.5 12.5 12.5 2.9-.2 4.2-.7Z" style="fill:#7e57c5"/><path d="M27.8 20.5c0-.2 0-.4-.1-.6 0-.2-.1-.4-.2-.6.3-1.1.5-2.2.5-3.3s-.2-2.2-.5-3.3l.3-.9v-.5l1.6-1c.1 0 .1-.2 0-.3l-.4-.6s-.2-.1-.3 0l-1.5 1.1h-.3c-.2 0-.4-.1-.6-.1h-.2c-1.9-3.4-5.5-5.7-9.6-5.8V3.4c.1-.1 0-.2-.1-.2h-.7c-.1 0-.2 0-.2.2v1.2c-5.9.2-10.8 5.1-11 11.1H3.3c-.1-.2-.2 0-.2 0v.8c0 .1 0 .2.2.2h1.2c.2 5.9 5.1 10.7 11.1 11v1.2c-.1.1 0 .2 0 .2h.7c.1 0 .2-.1.2-.2v-1.2c4-.1 7.6-2.5 9.5-5.9h.4c.2 0 .4-.1.6-.2l1.5 1.1h.3l.4-.6v-.3l-1.6-1v-.2Zm-11.9 2.7c-1.8-1.9-2.8-4.5-2.8-7.2s1.1-5.3 2.8-7.2v14.5Zm0-15.7c-2.3 2.1-3.7 5.2-3.7 8.5s1.4 6.3 3.7 8.5v2.2c-5.5-.2-10-4.7-10.2-10.2h1.2c.1.1.2 0 .2 0v-.8c0-.1 0-.2-.2-.2H5.7c.2-5.4 4.7-9.8 10.2-10.1v2.2Zm9.9 11.8L20.9 16v-.2l4.9-3.2h.2c.2 0 .4 0 .5.1.3 1 .5 2.1.5 3.2s-.2 2.2-.5 3.1h-.2c-.2 0-.4 0-.5.1Zm1.3-8v.4c0 .1 0 .3-.1.4h-.2c-.2 0-.3 0-.5-.1h-.2v-.5c0-.1 0-.3.1-.4h.2c.2 0 .3 0 .5.1h.1ZM16.8 5.4c.7 0 1.3.1 1.9.3-.7.3-1.3.7-1.9 1.2V5.5Zm0 21.3v-1.4c.6.5 1.2.9 1.9 1.2-.6.1-1.3.2-1.9.3ZM20 26c-1.2-.5-2.3-1.1-3.3-1.9V7.9c1-.8 2-1.5 3.3-1.9 2.3.9 4.3 2.5 5.5 4.7 0 .2-.2.4-.2.6v.7l-5.8 3.8c-.1 0-.1.2 0 .3l5.8 3.9v.4c0 .2 0 .4.1.6 0 .1 0 .3.1.4-1.2 2.1-3.2 3.8-5.5 4.7Zm6.7-5.1h-.4v-.2c0-.2 0-.3-.1-.5V20c.1 0 .3-.1.5-.1h.4V20.7c-.1 0-.3 0-.4.1Z" style="fill:#fff"/></svg>