<svg xmlns="http://www.w3.org/2000/svg" viewBox="0 0 400 400"><rect width="400" height="400" rx="200" ry="200" fill="#180e25"/><path d="M242.88 337.18c-56.51-19.96-97.01-73.84-97.01-137.18s40.49-117.23 97.01-137.18c-15.15-5.35-31.45-8.26-48.44-8.26-80.33 0-145.45 65.12-145.45 145.45s65.12 145.45 145.45 145.45c16.98 0 33.29-2.91 48.44-8.26Z" fill="#8d6bcc"/><path d="M338.68 252.01c-.31-2.17-.73-4.4-1.25-6.64-.61-2.6-1.51-4.88-2.69-6.77l-.61-.98c3.5-11.94 5.4-24.56 5.4-37.62s-1.92-25.83-5.46-37.84l.5-.88c1.54-2.74 2.7-5.96 3.47-9.58.46-2.16.71-4.23.8-6.21l19.05-11.17c1.13-.66 1.47-2.14.74-3.23l-4.61-6.9a2.28 2.28 0 0 0-3.27-.55l-17.11 13.01c-.92-.37-1.92-.71-3.01-1.03-2.1-.61-4.3-1.14-6.56-1.58-.71-.14-1.41-.24-2.1-.32-22.34-39.16-63.79-66.05-111.58-67.83l1.21-14.22c.11-1.33-.94-2.47-2.27-2.47h-8.12c-1.33 0-2.38 1.14-2.27 2.47l1.21 14.22c-69.92 2.67-126.3 59.06-128.93 128.99l-13.65-1.64c-1.35-.16-2.55.9-2.55 2.26v9a2.28 2.28 0 0 0 2.55 2.26l13.65-1.64c2.64 69.92 59.02 126.32 128.93 128.99l-1.21 14.22c-.11 1.33.94 2.47 2.27 2.47h8.12c1.33 0 2.38-1.14 2.27-2.47l-1.21-14.21c47.86-1.78 89.36-28.75 111.68-68 1.62-.13 3.29-.37 5.01-.74 2.46-.53 4.71-1.26 6.77-2.13l16.97 12.79c1.04.79 2.54.53 3.26-.55l4.5-6.73a2.27 2.27 0 0 0-.73-3.22l-18.91-11.2c-.05-.74-.13-1.5-.24-2.31Zm-138.55 31.95c-20.6-22.42-32.81-52.18-32.81-83.96s12.21-61.54 32.81-83.96v167.93Zm0-182.43c-26.84 24.91-43.05 60.34-43.05 98.47s16.22 73.55 43.05 98.47v25.4c-64.27-2.66-116.06-54.46-118.68-118.74l14.1 1.65c1.35.16 2.54-.9 2.54-2.26v-9.01c0-1.36-1.19-2.42-2.54-2.26l-14.1 1.65c2.63-64.28 54.42-116.08 118.68-118.74v25.4Zm115.45 137.18-56.65-37.89a1.14 1.14 0 0 1 0-1.89l56.33-37.68c.74.25 1.5.49 2.32.71 2.02.54 4.07.96 6.11 1.25 3.63 11.63 5.6 23.98 5.6 36.79s-1.95 25.06-5.55 36.65c-.72.11-1.44.23-2.19.39-2.05.44-4.04 1.01-5.96 1.67Zm14.18-93.79c-.06 1.53-.27 3.17-.64 4.89-.36 1.71-.83 3.28-1.4 4.69-.62-.04-1.29-.1-2.01-.19a43.68 43.68 0 0 1-5.78-1.13c-.69-.18-1.33-.38-1.92-.59.15-1.84.42-3.71.82-5.58.35-1.64.79-3.08 1.31-4.32.67.04 1.39.14 2.14.29 1.99.39 3.94.86 5.78 1.39.61.18 1.17.36 1.69.55ZM210.37 76.14c7.71.31 15.25 1.33 22.54 2.99-8.03 3.88-15.57 8.51-22.54 13.79V76.14Zm0 247.73v-16.78c6.97 5.28 14.51 9.91 22.54 13.79a123.92 123.92 0 0 1-22.54 2.99Zm37.91-7.58a123.478 123.478 0 0 1-37.92-22.39V106.1a123.478 123.478 0 0 1 37.92-22.39c27.1 10.05 49.76 29.32 64.15 53.99-1.08 2.13-1.92 4.61-2.51 7.42a52.96 52.96 0 0 0-1.07 8.09l-66.94 44.77a2.27 2.27 0 0 0 0 3.78l66.97 44.8c.03 1.35.16 2.79.41 4.36.39 2.39.93 4.73 1.62 6.97.5 1.63 1.03 3.03 1.59 4.28-14.39 24.73-37.07 44.05-64.23 54.12Zm76.85-59.81c-1.71.37-3.33.58-4.85.64-.22-.58-.43-1.22-.65-1.91-.57-1.84-1.02-3.77-1.33-5.73-.11-.7-.2-1.37-.25-2 1.74-.62 3.55-1.13 5.43-1.54 1.64-.36 3.14-.55 4.48-.57.24.63.44 1.32.62 2.07.46 1.98.83 3.95 1.1 5.85.09.63.15 1.22.19 1.77-1.42.57-3 1.05-4.73 1.42Z" fill="#fff"/></svg>